<?xml version="1.0" encoding="UTF-8"?><svg id="Layer_1" xmlns="http://www.w3.org/2000/svg" viewBox="0 0 912.01 819.13"><defs><style>.cls-1,.cls-2{stroke-width:0px;}.cls-1,.cls-3{fill:#ffd500;}.cls-2,.cls-4{fill:#005bbb;}.cls-3{stroke:#005bbb;stroke-width:16.9px;}.cls-3,.cls-4{stroke-miterlimit:8;}.cls-4{stroke:#ffd500;stroke-width:22px;}</style></defs><path class="cls-4" d="m12.94,596.24l47.53-291.06L12.94,11h660.26c44.51,0,87.49,41.64,102.88,66.91,15.39,25.27,123.39,232.27,123.39,232.27,0,0-109.78,191.31-127.89,219.15s-58.37,66.91-102.88,66.91H12.94Z"/><path class="cls-1" d="m302.22,264.5c20.88,12.16,44.94,17.8,69.05,16.06,56.77-4.09,112.05-21.08,161.55-49.88,84.88-49.38,193.12-29.13,254.4,47.61,6.26,10.16,47.42,20.43,57.75,26.39-10.33,5.97-51.49,12.58-57.75,22.73-61.28,76.73-169.52,96.99-254.4,47.61-49.81-28.98-105.47-46-162.61-49.95-23.31-1.61-46.61,3.34-67.22,14.35l-88.62,47.38c-27.48,13.53-40.7,3.14-55.67-23.59-13.33-23.81-25.75-50.83-36.49-60.37,10.42-9.26,22.64-36.55,35.75-61.4,15.6-29.57,32.36-40.71,61.85-24.95l82.42,47.99Zm442.56,21.12c-52.18-49.98-131.15-59.37-193.6-23.03-30.67,17.84-63.52,31.64-97.73,41.04,34.21,9.4,67.06,23.2,97.73,41.04,62.45,36.34,141.42,26.94,193.6-23.03h-112.1v-36.02h112.1Z"/><path id="a" class="cls-1" d="m318.18,203.57c-72.66-8.55-136.67-51.81-171.7-116.04h416.85c58.19,0,105.37,47.17,105.37,105.37v110.72l-36.02,18.01c-37.9,0-70.74-26.27-79.06-63.25l-11.86-52.7c-5.18-23.01-31.31-35.87-53.77-23.03-13.45,7.69-19.97,23.55-16.55,38.66l.07.31-153.34-18.05Zm123.73-21.6c18.28-37.43,64.72-51.92,101.34-30.42,17.35,10.18,29.42,27.4,33.84,47.03l11.68,51.9c4.62,20.54,22.87,35.14,43.92,35.14v-81.61c0-44.44-36.02-80.46-80.46-80.46H221.27c28.54,24.42,63.68,39.82,100.98,44.24l119.66,14.18Zm46.71-29.61v-36.02h36.02v36.02h-36.02Z"/><path id="a-2" class="cls-1" d="m318.18,403.67c-72.59,8.55-136.54,51.72-171.59,115.84-.05.09.02.2.12.2h400.22c67.25,0,121.77-54.52,121.77-121.77v-94.23c0-.05-.03-.1-.07-.12l-35.91-17.96s-.04-.01-.06-.01c-37.89.01-70.71,26.28-79.02,63.25l-11.86,52.7c-5.08,22.56-30.31,35.37-52.47,23.74-14.23-7.47-21.38-23.83-17.82-39.5h0c.02-.09-.05-.17-.14-.16l-153.15,18.03Zm123.77,21.69c17.7,36.12,61.62,50.82,97.59,32.38,19.24-9.87,32.83-28.1,37.58-49.2l11.65-51.77c4.61-20.5,22.79-35.07,43.79-35.14.07,0,.14.06.14.14v79.24c0,45.67-37.02,82.7-82.7,82.7H221.63c-.12,0-.18-.16-.09-.24,28.49-24.28,63.52-39.6,100.7-44l119.57-14.17c.06,0,.11.02.13.07Zm46.67,29.66v35.75c0,.07.06.13.13.13h35.75c.07,0,.13-.06.13-.13v-35.75c0-.07-.06-.13-.13-.13h-35.75c-.07,0-.13.06-.13.13Z"/><path class="cls-3" d="m136.61,711.64l-12.35,7.68c-10.67-14.17-25.23-21.26-43.69-21.26-14.75,0-26.99,4.74-36.74,14.23-9.74,9.49-14.62,21.01-14.62,34.57,0,8.82,2.24,17.12,6.72,24.9,4.48,7.78,10.63,13.82,18.45,18.12,7.82,4.3,16.58,6.45,26.29,6.45,17.79,0,32.31-7.08,43.57-21.26l12.35,8.12c-5.79,8.72-13.56,15.48-23.31,20.28-9.76,4.8-20.87,7.21-33.33,7.21-19.14,0-35.02-6.08-47.63-18.25-12.61-12.17-18.92-26.97-18.92-44.4,0-11.72,2.95-22.61,8.85-32.66,5.9-10.05,14-17.9,24.32-23.54,10.31-5.64,21.85-8.46,34.61-8.46,8.01,0,15.75,1.22,23.2,3.67,7.46,2.45,13.78,5.64,18.97,9.57,5.19,3.93,9.61,8.94,13.24,15.02Z"/><path class="cls-3" d="m223.86,683.37c18.65,0,34.11,6.75,46.38,20.25,11.15,12.32,16.72,26.9,16.72,43.74s-5.89,31.7-17.67,44.35c-11.78,12.65-26.93,18.97-45.43,18.97s-33.76-6.32-45.54-18.97c-11.78-12.65-17.67-27.43-17.67-44.35s5.57-31.31,16.72-43.63c12.26-13.58,27.76-20.37,46.49-20.37Zm-.06,15.25c-12.95,0-24.09,4.79-33.39,14.36-9.31,9.57-13.96,21.14-13.96,34.72,0,8.76,2.12,16.92,6.37,24.48,4.24,7.57,9.98,13.41,17.2,17.53,7.22,4.12,15.15,6.18,23.79,6.18s16.56-2.06,23.79-6.18c7.22-4.12,12.95-9.96,17.2-17.53,4.24-7.57,6.37-15.73,6.37-24.48,0-13.58-4.67-25.15-14.02-34.72-9.34-9.57-20.46-14.36-33.34-14.36Z"/><path class="cls-3" d="m315.79,686.48h15.58v51.01l56.1-51.01h21.69l-61.43,55.42,66.27,65.66h-22.04l-55.69-55.98-4.9,4.34v51.64h-15.58v-121.08Z"/><path class="cls-3" d="m487.5,683.37c18.65,0,34.11,6.75,46.38,20.25,11.15,12.32,16.72,26.9,16.72,43.74s-5.89,31.7-17.67,44.35c-11.78,12.65-26.92,18.97-45.43,18.97s-33.76-6.32-45.54-18.97c-11.78-12.65-17.67-27.43-17.67-44.35s5.57-31.31,16.72-43.63c12.26-13.58,27.76-20.37,46.49-20.37Zm-.06,15.25c-12.95,0-24.09,4.79-33.39,14.36-9.31,9.57-13.96,21.14-13.96,34.72,0,8.76,2.12,16.92,6.37,24.48,4.24,7.57,9.98,13.41,17.2,17.53,7.22,4.12,15.15,6.18,23.79,6.18s16.57-2.06,23.79-6.18c7.22-4.12,12.96-9.96,17.2-17.53s6.37-15.73,6.37-24.48c0-13.58-4.67-25.15-14.02-34.72-9.35-9.57-20.46-14.36-33.34-14.36Z"/><path class="cls-3" d="m681.95,807.57h-16.58l-40.53-88.17-40.2,88.17h-16.7l55.53-121.08h2.78l55.71,121.08Z"/><path class="cls-3" d="m721.32,686.48v89.59l88.92-89.59h1.22v121.08h-15.58v-88.75l-88.25,88.75h-1.89v-121.08h15.58Z"/><text/><path class="cls-2" d="m211.14,345.24c-7.77,4.14-17.42,1.31-21.73-6.37-2.74-4.89-5.45-9.79-6.82-12.37-4.59-8.63-10.63-16.82-16.31-24.24,5.69-7.58,11.99-16.68,17.29-27.1,1.14-2.24,3.67-6.95,6.36-11.85,4.67-8.52,15.43-11.54,23.85-6.68,24.36,14.08,69.72,40.38,69.72,40.38,3.01,1.75,6.08,3.4,9.18,4.95-2.44,1.15-4.84,2.36-7.22,3.63,0,0-49.51,26.42-74.32,39.65Z"/></svg>